<svg xmlns="http://www.w3.org/2000/svg" enable-background="new 0 0 64 64" viewBox="0 0 64 64" id="chinese-woman"><path d="M45.65,43.76l-0.12-0.04l-0.01,0l0,0l-4.15-1.2l-0.03-0.02l-0.06-0.01c-0.87-0.13-1.71-0.19-2.56-0.19h-1.93
	c-0.1-1.15-0.07-2.17,0.09-3.08c0.87-0.38,1.71-0.88,2.48-1.48h5.16c1.36,0,2.47-1.11,2.47-2.47V19.38c0-0.21-0.01-0.42-0.01-0.65
	c3.34-0.86,5.71-3.87,5.71-7.38c0-4.21-3.43-7.64-7.64-7.64c-2.23,0-4.28,0.95-5.73,2.62c-0.51-0.29-1.08-0.57-1.72-0.83
	c0.4-0.56,0.83-1.24,1.21-1.93c0.03,0,0.07,0.01,0.1,0.01c0.95,0,1.72-0.77,1.72-1.71c0-0.95-0.77-1.72-1.72-1.72
	c-0.94,0-1.71,0.77-1.71,1.72c0,0.41,0.15,0.78,0.39,1.07c-0.18,0.31-0.35,0.61-0.53,0.9c-0.79-1.89-2.76-3.23-5.07-3.23
	c-2.37,0-4.38,1.42-5.12,3.4c-0.16-0.33-0.3-0.63-0.4-0.89c0.34-0.34,0.54-0.79,0.54-1.28c0-1.02-0.83-1.85-1.85-1.85
	c-1.02,0-1.85,0.83-1.85,1.85c0,1.02,0.83,1.85,1.85,1.85c0.01,0,0.03,0,0.04,0c0.22,0.53,0.52,1.15,0.94,1.92
	c-0.5,0.21-0.98,0.45-1.43,0.71c-1.45-1.67-3.5-2.62-5.73-2.62c-4.21,0-7.64,3.43-7.64,7.64c0,3.51,2.37,6.51,5.71,7.38
	c-0.01,0.22-0.02,0.43-0.02,0.65v15.88c0,1.36,1.11,2.47,2.47,2.47h5.05c0.81,0.63,1.68,1.15,2.6,1.54
	c0.15,0.85,0.18,1.83,0.09,3.02H25.3c-0.36,0-0.74,0.01-1.12,0.04c-2.03,0.12-3.99,0.6-5.89,1.47C12.16,46.55,8.2,52.66,8.2,59.38
	v3.94C8.2,63.69,8.51,64,8.88,64h46.23c0.38,0,0.69-0.31,0.69-0.69v-3.94C55.8,52.63,51.82,46.5,45.65,43.76z M18.97,5.09
	c1.75,0,3.37,0.71,4.55,1.97c-3.47,2.39-5.76,6.11-6.34,10.26c-2.62-0.78-4.47-3.17-4.47-5.97C12.71,7.9,15.52,5.09,18.97,5.09z
	 M31.97,2c1.96,0,3.61,1.27,3.98,2.96C34.69,4.6,33.36,4.41,32,4.41c-1.36,0-2.7,0.19-4,0.55C28.36,3.28,30,2,31.97,2z M25.11,36.45
	c-2.49-2.05-3.91-5.07-3.91-8.28v-7.05c3.93,1.03,7.74,1.56,11.32,1.56c0.42,0,0.84-0.01,1.29-0.03c0.01,0,0.02,0.01,0.04,0.01
	l0.05-0.01c0.08,0,0.15-0.02,0.19-0.04c0.03-0.01,0.05-0.04,0.08-0.05c0.06-0.03,0.12-0.06,0.17-0.11c0.03-0.03,0.06-0.07,0.09-0.11
	c0.03-0.04,0.06-0.09,0.07-0.15l0.97-2.8l1.58,2.58c0.12,0.21,0.35,0.34,0.6,0.34c0.03,0,0.1,0,0.07-0.01l0.09-0.01l0.02-0.01
	c1.64-0.24,3.22-0.6,4.84-1.1v6.99c0,3.21-1.43,6.23-3.93,8.3c-0.03,0.02-0.08,0.06-0.09,0.08c-0.74,0.6-1.57,1.1-2.52,1.53
	c-0.02,0-0.03,0-0.05,0.01l-0.05,0.02l-0.05,0.01l-0.05,0.03c-1.27,0.51-2.62,0.78-4.01,0.78c-2.44,0-4.83-0.84-6.69-2.33
	C25.21,36.52,25.16,36.48,25.11,36.45z M46.82,17.32c-0.58-4.15-2.87-7.86-6.34-10.26c1.18-1.26,2.8-1.97,4.55-1.97
	c3.45,0,6.26,2.81,6.26,6.26C51.29,14.15,49.45,16.54,46.82,17.32z M27.87,43.66c2.38,0,5.9,0,8.28,0c0.02,0,0.04,0,0.06,0
	c1.48,0,2.5,0,2.5,0c0.49,0,1,0.03,1.54,0.08c-0.19,0.57-0.39,1.15-0.61,1.71c-0.12,0.32-0.25,0.63-0.37,0.95
	c0,0-0.21,0.5-0.26,0.62c-0.1,0.24-0.21,0.47-0.32,0.7c-0.17,0.38-0.34,0.76-0.54,1.13c-0.12,0.26-0.25,0.51-0.37,0.76
	c-1.35,2.6-2.97,5.01-4.82,7.17c-4.64-4.97-7.3-9.37-7.91-13.1c0.08,0,0.16,0,0.24,0c0,0,1.03,0,2.52,0
	C27.83,43.66,27.85,43.66,27.87,43.66z M36.56,61.32c0.34-0.34,0.68-0.69,1.01-1.05c0.4-0.44,0.79-0.89,1.17-1.36
	c1.14-1.38,2.23-2.97,3.24-4.74c0.19-0.33,0.38-0.67,0.58-1.04c0.13-0.24,0.26-0.49,0.38-0.73c0.32-0.63,0.63-1.27,0.92-1.92
	c0.15-0.34,0.3-0.68,0.47-1.09c0.16-0.37,0.31-0.75,0.45-1.12c0.16-0.4,0.31-0.81,0.45-1.22c0.18-0.5,0.35-1.02,0.51-1.53
	c0.02-0.06,0.04-0.11,0.06-0.17c5.25,2.65,8.64,8.13,8.64,14.03v3.25H35.12C35.59,62.23,36.07,61.8,36.56,61.32z M18.2,45.38
	c1.99,7.07,5.45,12.19,10.57,15.61c-0.69,0.61-1.36,1.16-2,1.65H9.57v-3.25C9.57,53.49,12.95,48.03,18.2,45.38z"></path></svg>